<!DOCTYPE svg PUBLIC "-//W3C//DTD SVG 1.1//EN" "http://www.w3.org/Graphics/SVG/1.1/DTD/svg11.dtd">
<!-- Uploaded to: SVG Repo, www.svgrepo.com, Transformed by: SVG Repo Mixer Tools -->
<svg width="100px" height="100px" viewBox="-6.4 -6.4 76.80 76.80" xmlns="http://www.w3.org/2000/svg" xmlns:xlink="http://www.w3.org/1999/xlink" aria-hidden="true" role="img" class="iconify iconify--emojione-monotone" preserveAspectRatio="xMidYMid meet" fill="#000000" stroke="#000000">

<g id="SVGRepo_bgCarrier" stroke-width="0" transform="translate(0,0), scale(1)">

<path transform="translate(-6.4, -6.4), scale(2.4)" d="M16,27.35555730635921C17.508708027047472,26.873323592002308,19.05094895655928,26.70951007994226,20.572934322101485,26.270978652088687C22.27415359362827,25.780804348757666,24.15767062282582,25.69079728767024,25.554245550463698,24.602681333852157C26.99546860476939,23.479778604205652,27.823016767048646,21.755931006149623,28.530119432198816,20.071282599672077C29.267977827028243,18.31335969778132,30.33256886275758,16.374860659151196,29.7726666538511,14.552434403777898C29.193404177053708,12.666992393234832,26.54504777736591,12.189193323552182,25.58001265283042,10.46897711604834C24.598633409312253,8.719626820409724,25.349253081246978,6.336894069211463,24.229994221822047,4.67238474750191C23.0548417358312,2.9247530438163776,21.298026986650953,0.8762614388874413,19.194228213949362,0.9723377681082805C16.86833556922001,1.0785566852247617,15.89634479845605,4.3965651263734085,13.69450939935527,5.153519503087226C11.845996611516076,5.789007444528165,9.768427701107157,4.2729079204175955,7.902208551605028,4.854346254683081C5.936081728065172,5.466911775478794,4.144369818041648,6.783299742436347,2.989930553909451,8.488632903123888C1.8213635927271958,10.214835442575778,1.6314059162114523,12.393847177476127,1.3961480777141855,14.465073311774958C1.1597416049899831,16.546412100533153,0.8447032145043539,18.725379976743184,1.6055233300320992,20.677048987037622C2.3592177576158804,22.610439058521912,4.226307371611104,23.80895614586849,5.633279626092564,25.334236950771057C7.026347571167705,26.844444269913453,7.892940929108509,29.286146845955095,9.909560666792173,29.679350711617424C12.065858369638335,30.099789218904768,13.907392861453003,28.024424771117207,16,27.35555730635921" fill="#ffb2cd" strokewidth="0"/>

</g>

<g id="SVGRepo_tracerCarrier" stroke-linecap="round" stroke-linejoin="round" stroke="#CCCCCC" stroke-width="1.7920000000000003"/>

<g id="SVGRepo_iconCarrier">

<path d="M32 2C15.432 2 2 15.432 2 32s13.432 30 30 30s30-13.432 30-30S48.568 2 32 2zm10.994 44.508H21.006V17.492h21.279v5.139H26.932v6.16h14.094v5.039H26.932v7.461h16.063v5.217z" fill="#ffffff"/>

</g>

</svg>